<svg width="798" height="189" xmlns="http://www.w3.org/2000/svg"><g fill="none" fill-rule="evenodd"><path d="M0 0h798v189H0z"/><path stroke="#536A58" stroke-width="2" stroke-linecap="square" stroke-dasharray="12" d="M510.5 128.5h210"/><path d="M490.162 41c.147 0 .22-.073.22-.22V38.6h-1.82a3.46 3.46 0 0 1-.85-.09 1.319 1.319 0 0 1-.57-.29c-.28-.293-.42-.813-.42-1.56V32.6h3.66v-2.14c0-.147-.073-.22-.22-.22h-3.44v-3.02c0-.147-.073-.22-.22-.22h-2.48v3.24h-2.38v2.14c0 .147.073.22.22.22h2.16v4.1c0 1.533.393 2.633 1.18 3.3.787.667 1.867 1 3.24 1h1.72Zm8.067.24c.96 0 1.804-.193 2.53-.58a4.214 4.214 0 0 0 1.7-1.63c.407-.7.61-1.503.61-2.41V34.6c0-.907-.203-1.707-.61-2.4a4.234 4.234 0 0 0-1.7-1.62c-.726-.387-1.57-.58-2.53-.58-.946 0-1.786.193-2.52.58A4.218 4.218 0 0 0 494 32.2c-.407.693-.61 1.5-.61 2.42v2.02c0 .907.203 1.707.61 2.4a4.234 4.234 0 0 0 1.7 1.62c.727.387 1.57.58 2.53.58Zm-.02-2.46c-.627 0-1.133-.18-1.52-.54-.4-.4-.6-.98-.6-1.74v-1.76c0-.707.187-1.263.56-1.67.373-.407.907-.61 1.6-.61.693 0 1.213.173 1.56.52.373.36.56.947.56 1.76v1.76c0 .707-.187 1.263-.56 1.67-.373.407-.907.61-1.6.61Zm10.347 2.42c.627 0 1.19-.153 1.69-.46.5-.307.91-.74 1.23-1.3h.38v1.34c0 .147.074.22.22.22h2.48V26.22c0-.147-.073-.22-.22-.22h-2.48v5.72h-.38a3.385 3.385 0 0 0-1.17-1.26c-.486-.307-1.07-.46-1.75-.46-1.013 0-1.82.343-2.42 1.03-.6.687-.9 1.65-.9 2.89v3.4c0 1.213.3 2.163.9 2.85.6.687 1.407 1.03 2.42 1.03Zm.9-2.62c-.48 0-.846-.127-1.1-.38-.28-.28-.42-.727-.42-1.34v-2.5c0-.56.134-.99.4-1.29.267-.3.64-.45 1.12-.45.4 0 .81.093 1.23.28.42.187.81.473 1.17.86v3.66c-.386.413-.783.71-1.19.89-.406.18-.81.27-1.21.27Zm10.548 2.62c.746 0 1.396-.167 1.95-.5a3.016 3.016 0 0 0 1.23-1.42h.32c.146.533.43.953.85 1.26.42.307.93.46 1.53.46h1.18c.146 0 .22-.073.22-.22v-2.14h-.6c-.2 0-.34-.04-.42-.12-.094-.093-.14-.253-.14-.48v-3.86c0-1.48-.38-2.54-1.14-3.18-.76-.64-1.974-.96-3.64-.96-.494 0-.994.037-1.5.11a9.75 9.75 0 0 0-1.31.27c-.367.107-.59.2-.67.28-.04.04-.06.1-.06.18v2.14h.38c.533-.173 1.05-.3 1.55-.38a10.2 10.2 0 0 1 1.61-.12c.76 0 1.293.107 1.6.32.306.213.46.613.46 1.2v.7h-3.24c-.96 0-1.724.263-2.29.79-.567.527-.85 1.223-.85 2.09v.7c0 .853.266 1.547.8 2.08.533.533 1.26.8 2.18.8Zm.66-2.4c-.627 0-.94-.28-.94-.84v-.7c0-.24.08-.44.24-.6.16-.16.393-.24.7-.24h2.74v1.44a4.85 4.85 0 0 1-1.35.72c-.447.147-.91.22-1.39.22ZM532.23 45c1.067 0 1.9-.253 2.5-.76.6-.507 1.033-1.32 1.3-2.44.373-1.453.716-2.787 1.03-4 .313-1.213.623-2.403.93-3.57.307-1.167.626-2.39.96-3.67.026-.107.01-.187-.05-.24a.283.283 0 0 0-.19-.08h-2.52a7859.272 7859.272 0 0 0-1.36 5.78l-.62 2.62h-.38a59.04 59.04 0 0 0-.42-1.66 256.461 256.461 0 0 0-.99-3.56c-.22-.773-.484-1.74-.79-2.9-.053-.187-.187-.28-.4-.28h-2.62c.213.693.447 1.437.7 2.23.253.793.506 1.58.76 2.36.253.78.493 1.51.72 2.19.226.68.423 1.257.59 1.73.167.473.277.803.33.99.093.253.187.413.28.48.093.067.233.1.42.1h1.4c-.094.387-.167.7-.22.94-.213.92-.774 1.38-1.68 1.38h-2.06v2.14c0 .147.073.22.22.22h2.16Z" fill="#973C3C" fill-rule="nonzero"/><path d="M581.115 159.24c.96 0 1.773-.097 2.44-.29.666-.193 1.086-.377 1.26-.55.04-.04.06-.093.06-.16V156h-.38c-.52.227-1.027.4-1.52.52a6.85 6.85 0 0 1-1.62.18c-.494 0-.904-.053-1.23-.16a2.131 2.131 0 0 1-.81-.46c-.387-.387-.58-.953-.58-1.7v-1.46c0-.867.223-1.48.67-1.84.446-.36 1.103-.54 1.97-.54.586 0 1.126.06 1.62.18.493.12.993.293 1.5.52h.38v-2.22c0-.08-.027-.14-.08-.18-.147-.16-.547-.34-1.2-.54-.654-.2-1.454-.3-2.4-.3-1.107 0-2.054.2-2.84.6-.787.4-1.387.953-1.8 1.66-.414.707-.62 1.527-.62 2.46v1.82c0 .92.206 1.733.62 2.44.413.707 1.006 1.26 1.78 1.66.773.4 1.7.6 2.78.6Zm9.487-.24v-7.04c.413-.44.873-.773 1.38-1 .507-.227.96-.34 1.36-.34.667 0 1 .353 1 1.06v7.1c0 .147.073.22.22.22h2.48v-7.88c0-.96-.253-1.72-.76-2.28-.507-.56-1.193-.84-2.06-.84-.667 0-1.277.183-1.83.55a4.972 4.972 0 0 0-1.41 1.43h-.38v-5.76c0-.147-.073-.22-.22-.22h-2.48v14.78c0 .147.073.22.22.22h2.48Zm11.707.2c.747 0 1.397-.167 1.95-.5a3.016 3.016 0 0 0 1.23-1.42h.32c.147.533.43.953.85 1.26.42.307.93.46 1.53.46h1.18c.147 0 .22-.073.22-.22v-2.14h-.6c-.2 0-.34-.04-.42-.12-.093-.093-.14-.253-.14-.48v-3.86c0-1.48-.38-2.54-1.14-3.18-.76-.64-1.973-.96-3.64-.96-.493 0-.993.037-1.5.11a9.75 9.75 0 0 0-1.31.27c-.367.107-.59.2-.67.28-.04.04-.06.1-.06.18v2.14h.38c.534-.173 1.05-.3 1.55-.38a10.2 10.2 0 0 1 1.61-.12c.76 0 1.293.107 1.6.32.307.213.46.613.46 1.2v.7h-3.24c-.96 0-1.723.263-2.29.79s-.85 1.223-.85 2.09v.7c0 .853.267 1.547.8 2.08.534.533 1.26.8 2.18.8Zm.66-2.4c-.627 0-.94-.28-.94-.84v-.7c0-.24.08-.44.24-.6.16-.16.394-.24.7-.24h2.74v1.44a4.85 4.85 0 0 1-1.35.72c-.447.147-.91.22-1.39.22Zm16.847 2.2v-2.14c0-.147-.073-.22-.22-.22h-3.12v-4.68c.387-.36.824-.63 1.31-.81.487-.18.97-.27 1.45-.27.307 0 .577.017.81.05.234.033.497.097.79.19h.38v-2.6c0-.093-.02-.16-.06-.2-.08-.08-.216-.147-.41-.2a2.992 2.992 0 0 0-.77-.08c-.786 0-1.456.21-2.01.63a4.775 4.775 0 0 0-1.35 1.63h-.28c-.066-.253-.153-.54-.26-.86l-.28-.84-.031-.096-.067-.198-.022-.066h-4.22v2.14c0 .147.074.22.22.22h2.1v6.04h-2.44v2.14c0 .147.074.22.22.22h8.26Zm11.888 0c.146 0 .22-.073.22-.22v-2.18h-1.82a3.46 3.46 0 0 1-.85-.09 1.319 1.319 0 0 1-.57-.29c-.28-.293-.42-.813-.42-1.56v-4.06h3.66v-2.14c0-.147-.074-.22-.22-.22h-3.44v-3.02c0-.147-.074-.22-.22-.22h-2.48v3.24h-2.38v2.14c0 .147.073.22.22.22h2.16v4.1c0 1.533.393 2.633 1.18 3.3.786.667 1.866 1 3.24 1h1.72Zm7.927.18c1.547 0 2.726-.29 3.54-.87.813-.58 1.22-1.43 1.22-2.55 0-.827-.25-1.48-.75-1.96s-1.284-.793-2.35-.94l-1.92-.28c-.453-.067-.764-.17-.93-.31a.705.705 0 0 1-.25-.57c0-.347.15-.617.45-.81.3-.193.837-.29 1.61-.29.6 0 1.12.033 1.56.1.44.067.947.193 1.52.38h.38v-2.2c0-.08-.02-.14-.06-.18-.12-.12-.467-.257-1.04-.41-.573-.153-1.353-.23-2.34-.23-1.467 0-2.63.31-3.49.93-.86.62-1.29 1.483-1.29 2.59 0 1.52.966 2.427 2.9 2.72l2.06.3c.52.093.866.213 1.04.36.173.147.26.347.26.6 0 .333-.147.597-.44.79-.293.193-.847.29-1.66.29-.84 0-1.56-.063-2.16-.19a9.151 9.151 0 0 1-1.84-.61h-.38v2.36c0 .067.013.113.04.14.106.093.353.207.74.34.386.133.89.25 1.51.35.62.1 1.31.15 2.07.15Zm12.907-5.18v-.12c0-.347.07-.617.21-.81.14-.193.423-.437.85-.73l.66-.42c.533-.347.94-.683 1.22-1.01.28-.327.477-.68.59-1.06.113-.38.17-.817.17-1.31v-.62a2.89 2.89 0 0 0-.49-1.61c-.327-.5-.837-.91-1.53-1.23-.693-.32-1.593-.48-2.7-.48-1 0-1.89.1-2.67.3-.78.2-1.29.42-1.53.66a.271.271 0 0 0-.08.2v2.52h.38a6.129 6.129 0 0 1 1.83-.76 9.075 9.075 0 0 1 2.05-.22c.533 0 .947.05 1.24.15.293.1.493.243.6.43.133.133.2.327.2.58 0 .24-.03.437-.09.59-.06.153-.18.31-.36.47-.18.16-.457.367-.83.62l-.52.36c-.507.347-.9.663-1.18.95-.28.287-.477.577-.59.87-.113.293-.17.627-.17 1v.46c0 .147.073.22.22.22h2.52Zm.58 5.18v-3.36c0-.147-.073-.22-.22-.22h-3.56v3.36c0 .147.073.22.22.22h3.56Z" fill="#536A58" fill-rule="nonzero"/><path d="M677.591 41.2c.627 0 1.19-.153 1.69-.46.5-.307.91-.74 1.23-1.3h.38v1.34c0 .147.073.22.22.22h2.48V26.22c0-.147-.073-.22-.22-.22h-2.48v5.72h-.38a3.385 3.385 0 0 0-1.17-1.26c-.487-.307-1.07-.46-1.75-.46-1.013 0-1.82.343-2.42 1.03-.6.687-.9 1.65-.9 2.89v3.4c0 1.213.3 2.163.9 2.85.6.687 1.407 1.03 2.42 1.03Zm.9-2.62c-.48 0-.847-.127-1.1-.38-.28-.28-.42-.727-.42-1.34v-2.5c0-.56.133-.99.4-1.29.267-.3.64-.45 1.12-.45.4 0 .81.093 1.23.28.42.187.81.473 1.17.86v3.66c-.387.413-.783.71-1.19.89-.407.18-.81.27-1.21.27Zm13.087 2.66c.52 0 1.034-.037 1.54-.11.507-.073.947-.163 1.32-.27.374-.107.614-.22.72-.34.054-.053.08-.107.08-.16V38.3h-.38a9.514 9.514 0 0 1-1.44.42c-.506.107-1.113.16-1.82.16-.466 0-.876-.047-1.23-.14-.353-.093-.636-.247-.85-.46-.333-.32-.5-.813-.5-1.48v-.48h6.28c.134 0 .2-.067.2-.2v-1.66c0-.893-.186-1.673-.56-2.34a3.97 3.97 0 0 0-1.57-1.56c-.673-.373-1.463-.56-2.37-.56-.946 0-1.77.187-2.47.56a4.02 4.02 0 0 0-1.63 1.57c-.386.673-.58 1.457-.58 2.35v2.28c0 1.387.434 2.48 1.3 3.28.867.8 2.187 1.2 3.96 1.2Zm1.3-6.6h-3.86v-.28c0-.747.167-1.28.5-1.6.334-.32.827-.48 1.48-.48.627 0 1.087.147 1.38.44.334.32.5.867.5 1.64v.28Zm8.008 6.56c.746 0 1.396-.167 1.95-.5a3.016 3.016 0 0 0 1.23-1.42h.32c.146.533.43.953.85 1.26.42.307.93.46 1.53.46h1.18c.146 0 .22-.073.22-.22v-2.14h-.6c-.2 0-.34-.04-.42-.12-.094-.093-.14-.253-.14-.48v-3.86c0-1.48-.38-2.54-1.14-3.18-.76-.64-1.974-.96-3.64-.96-.494 0-.994.037-1.5.11a9.75 9.75 0 0 0-1.31.27c-.367.107-.59.2-.67.28-.04.04-.06.1-.06.18v2.14h.38c.533-.173 1.05-.3 1.55-.38a10.2 10.2 0 0 1 1.61-.12c.76 0 1.293.107 1.6.32.306.213.46.613.46 1.2v.7h-3.24c-.96 0-1.724.263-2.29.79-.567.527-.85 1.223-.85 2.09v.7c0 .853.266 1.547.8 2.08.533.533 1.26.8 2.18.8Zm.66-2.4c-.627 0-.94-.28-.94-.84v-.7c0-.24.08-.44.24-.6.16-.16.393-.24.7-.24h2.74v1.44a4.85 4.85 0 0 1-1.35.72c-.447.147-.91.22-1.39.22Zm11.587 2.4c.626 0 1.19-.153 1.69-.46.5-.307.91-.74 1.23-1.3h.38v1.34c0 .147.073.22.22.22h2.48V26.22c0-.147-.074-.22-.22-.22h-2.48v5.72h-.38a3.385 3.385 0 0 0-1.17-1.26c-.487-.307-1.07-.46-1.75-.46-1.014 0-1.82.343-2.42 1.03-.6.687-.9 1.65-.9 2.89v3.4c0 1.213.3 2.163.9 2.85.6.687 1.406 1.03 2.42 1.03Zm.9-2.62c-.48 0-.847-.127-1.1-.38-.28-.28-.42-.727-.42-1.34v-2.5c0-.56.133-.99.4-1.29.266-.3.64-.45 1.12-.45.4 0 .81.093 1.23.28.42.187.81.473 1.17.86v3.66c-.387.413-.784.71-1.19.89-.407.18-.81.27-1.21.27ZM731.28 41v-2.14c0-.147-.073-.22-.22-.22h-2.94V26.22c0-.147-.073-.22-.22-.22h-5.78v2.14c0 .147.073.22.22.22h3.08v10.28h-3.66v2.14c0 .147.073.22.22.22h9.3Zm9.087-13.08v-2.58c0-.147-.073-.22-.22-.22h-3.26v2.58c0 .147.074.22.22.22h3.26Zm2.76 13.08v-2.14c0-.147-.073-.22-.22-.22h-2.94v-8.18c0-.147-.073-.22-.22-.22h-5.78v2.14c0 .147.074.22.22.22h3.08v6.04h-3.66v2.14c0 .147.074.22.22.22h9.3Zm5.287 0v-7.04c.414-.44.874-.773 1.38-1 .507-.227.96-.34 1.36-.34.667 0 1 .353 1 1.06v7.1c0 .147.074.22.22.22h2.48v-7.88c0-.96-.253-1.72-.76-2.28-.506-.56-1.193-.84-2.06-.84-.666 0-1.276.183-1.83.55a4.972 4.972 0 0 0-1.41 1.43h-.38v-1.52c0-.147-.073-.22-.22-.22h-2.48v10.54c0 .147.074.22.22.22h2.48Zm14.248.24c.52 0 1.033-.037 1.54-.11.506-.073.946-.163 1.32-.27.373-.107.613-.22.72-.34.053-.053.08-.107.08-.16V38.3h-.38a9.514 9.514 0 0 1-1.44.42c-.507.107-1.114.16-1.82.16-.467 0-.877-.047-1.23-.14-.354-.093-.637-.247-.85-.46-.334-.32-.5-.813-.5-1.48v-.48h6.28c.133 0 .2-.067.2-.2v-1.66c0-.893-.187-1.673-.56-2.34a3.97 3.97 0 0 0-1.57-1.56c-.674-.373-1.464-.56-2.37-.56-.947 0-1.77.187-2.47.56a4.02 4.02 0 0 0-1.63 1.57c-.387.673-.58 1.457-.58 2.35v2.28c0 1.387.433 2.48 1.3 3.28.866.8 2.186 1.2 3.96 1.2Zm1.3-6.6h-3.86v-.28c0-.747.166-1.28.5-1.6.333-.32.826-.48 1.48-.48.626 0 1.086.147 1.38.44.333.32.5.867.5 1.64v.28Z" fill="#973C3C" fill-rule="nonzero"/><path stroke="#973C3C" stroke-linecap="square" d="M509.5 52.5v106"/><path stroke="#973C3C" stroke-width="4" stroke-linecap="square" d="M720.5 52.5v106"/><path fill="#536A58" d="m471 115 38 13.696L471 141l10-12.992z"/><path fill="#536A58" d="M28 125h462v6H28z"/></g></svg>